<svg width="512" height="512" viewBox="0 0 512 512" fill="none" xmlns="http://www.w3.org/2000/svg">
  <rect width="512" height="512" rx="64" fill="#3b82f6"/>
  <rect x="32" y="32" width="448" height="448" rx="32" fill="white" fill-opacity="0.1"/>
  
  <!-- Main Icon - Building/Organization -->
  <g transform="translate(128, 128)">
    <!-- Building base -->
    <rect x="32" y="86" width="192" height="170" rx="8" fill="white" fill-opacity="0.9"/>
    
    <!-- Building top -->
    <rect x="54" y="54" width="148" height="54" rx="4" fill="white"/>
    
    <!-- Windows grid -->
    <g fill="#3b82f6">
      <!-- Top row -->
      <rect x="75" y="75" width="20" height="20" rx="2"/>
      <rect x="118" y="75" width="20" height="20" rx="2"/>
      <rect x="161" y="75" width="20" height="20" rx="2"/>
      
      <!-- Second row -->
      <rect x="75" y="118" width="20" height="20" rx="2"/>
      <rect x="118" y="118" width="20" height="20" rx="2"/>
      <rect x="161" y="118" width="20" height="20" rx="2"/>
      
      <!-- Third row -->
      <rect x="75" y="161" width="20" height="20" rx="2"/>
      <rect x="118" y="161" width="20" height="20" rx="2"/>
      <rect x="161" y="161" width="20" height="20" rx="2"/>
      
      <!-- Fourth row -->
      <rect x="75" y="204" width="20" height="20" rx="2"/>
      <rect x="118" y="204" width="20" height="20" rx="2"/>
      <rect x="161" y="204" width="20" height="20" rx="2"/>
    </g>
    
    <!-- Main entrance door -->
    <rect x="107" y="203" width="42" height="53" rx="4" fill="#3b82f6"/>
    <circle cx="139" cy="230" r="3" fill="white"/>
    
    <!-- Flag pole -->
    <rect x="10" y="21" width="5" height="235" fill="white"/>
    
    <!-- Flag -->
    <path d="M15 21 L85 21 L75 43 L85 64 L15 64 Z" fill="#ef4444"/>
    
    <!-- People icons -->
    <g transform="translate(235, 160)">
      <circle cx="10" cy="10" r="8" fill="white"/>
      <rect x="2" y="21" width="16" height="21" rx="8" fill="white"/>
    </g>
    
    <g transform="translate(235, 214)">
      <circle cx="10" cy="10" r="8" fill="white" fill-opacity="0.8"/>
      <rect x="2" y="21" width="16" height="21" rx="8" fill="white" fill-opacity="0.8"/>
    </g>
    
    <!-- Additional decorative elements -->
    <g transform="translate(10, 160)">
      <circle cx="5" cy="5" r="4" fill="white" fill-opacity="0.6"/>
      <rect x="1" y="11" width="8" height="11" rx="4" fill="white" fill-opacity="0.6"/>
    </g>
  </g>
  
  <!-- Decorative corner elements -->
  <circle cx="85" cy="85" r="5" fill="white" fill-opacity="0.3"/>
  <circle cx="427" cy="427" r="5" fill="white" fill-opacity="0.3"/>
  <circle cx="427" cy="85" r="3" fill="white" fill-opacity="0.2"/>
  <circle cx="85" cy="427" r="3" fill="white" fill-opacity="0.2"/>
  
  <!-- Additional decorative dots -->
  <circle cx="150" cy="100" r="2" fill="white" fill-opacity="0.2"/>
  <circle cx="362" cy="150" r="2" fill="white" fill-opacity="0.2"/>
  <circle cx="100" cy="362" r="2" fill="white" fill-opacity="0.2"/>
  <circle cx="412" cy="300" r="2" fill="white" fill-opacity="0.2"/>
</svg>